PathFileType	4	(X/Y/Z)
DataRate	CameraRate	NumFrames	NumMarkers	Units	OrigDataRate	OrigDataStartFrame	OrigNumFrames	
  120.0	  120.0	    4	     56	     mm	  120.0	      207	    551
Frame#	Time	LASI			RASI			LPSI			RPSI			RTH1			RTH2			RTH3			RLFC			RMFC			LTH1			LTH2			LTH3			LLFC			LMFC			RTB1			RTB2			RTB3			RLMAL			RMMAL			LTB1			LTB2			LTB3			LMMAL			LLMAL			RCAL			RTOE			RMT5			LCAL			LTOE			LMT5			LACR			RACR			CLAV			C7			LASH			LPSH			RASH			RPSH			RUA1			RUA2			RUA3			RLEL			RMEL			LUA1			LUA2			LUA3			LLEL			LMEL			RFAsuperior			RFAradius			RFAulna			LFAsuperior			LFAradius			LFAulna			RHJC			LHJC			
		X1	Y1	Z1	X2	Y2	Z2	X3	Y3	Z3	X4	Y4	Z4	X5	Y5	Z5	X6	Y6	Z6	X7	Y7	Z7	X8	Y8	Z8	X9	Y9	Z9	X10	Y10	Z10	X11	Y11	Z11	X12	Y12	Z12	X13	Y13	Z13	X14	Y14	Z14	X15	Y15	Z15	X16	Y16	Z16	X17	Y17	Z17	X18	Y18	Z18	X19	Y19	Z19	X20	Y20	Z20	X21	Y21	Z21	X22	Y22	Z22	X23	Y23	Z23	X24	Y24	Z24	X25	Y25	Z25	X26	Y26	Z26	X27	Y27	Z27	X28	Y28	Z28	X29	Y29	Z29	X30	Y30	Z30	X31	Y31	Z31	X32	Y32	Z32	X33	Y33	Z33	X34	Y34	Z34	X35	Y35	Z35	X36	Y36	Z36	X37	Y37	Z37	X38	Y38	Z38	X39	Y39	Z39	X40	Y40	Z40	X41	Y41	Z41	X42	Y42	Z42	X43	Y43	Z43	X44	Y44	Z44	X45	Y45	Z45	X46	Y46	Z46	X47	Y47	Z47	X48	Y48	Z48	X49	Y49	Z49	X50	Y50	Z50	X51	Y51	Z51	X52	Y52	Z52	X53	Y53	Z53	X54	Y54	Z54	X55	Y55	Z55	X56	Y56	Z56	

207	1.72500	569.32192	1026.64923	-696.52769	698.62638	1025.17773	-482.26917	465.79622	1046.67180	-537.00866	511.78739	1046.70536	-463.64786	678.19403	849.50293	-408.74506	699.90714	724.12804	-445.41987	622.84465	612.70517	-373.71426	634.27469	530.97252	-374.85516	548.00739	500.73183	-453.38205	494.31016	883.29519	-713.78895	529.42152	766.40462	-730.21029	447.58079	638.32880	-682.31717	436.01944	531.62511	-682.97545	507.66373	520.31103	-583.63802	632.06727	400.28833	-429.52156	636.07305	343.71941	-356.73369	609.12336	223.41332	-408.99874	591.01064	132.78922	-333.32870	566.48516	124.48724	-416.32363	494.05884	394.44507	-658.23497	421.27602	299.58670	-689.52383	467.97164	207.48581	-640.56669	461.54712	121.83555	-606.76913	391.49460	125.80464	-654.78203	513.56239	101.01050	-330.14300	688.38368	74.86931	-459.93555	716.62663	62.51030	-366.22441	361.99933	98.10030	-586.72416	543.41831	80.11277	-707.47523	470.37788	60.67039	-764.48211	441.93830	1470.58263	-678.41809	633.63162	1469.16246	-357.04455	639.95163	1456.26069	-551.25487	513.60115	1530.96642	-504.02303	520.75427	1444.15527	-684.20289	408.48147	1441.91406	-619.84646	684.48836	1445.76797	-407.26678	579.75325	1435.33930	-346.37285	684.90010	1374.24783	-290.78466	732.97189	1323.11116	-303.49135	688.12538	1277.94449	-222.53683	770.93856	1237.11965	-198.44564	720.17113	1174.00967	-236.62806	395.82950	1401.12075	-725.75109	369.76733	1312.47524	-710.93943	381.90747	1320.94872	-787.88437	355.45412	1233.96896	-857.42282	378.30209	1166.13539	-806.05552	837.21131	1244.05235	-248.18418	941.11105	1210.68761	-377.36943	968.55250	1183.35334	-323.62484	413.24600	1250.70531	-893.22474	585.01380	1229.86585	-943.25811	554.11420	1206.39892	-992.90989	629.62819	953.51294	-482.66698	538.87067	976.82183	-635.77412	
208	1.73333	569.28098	1026.62830	-696.52357	698.61233	1025.15647	-482.32776	465.88439	1046.64601	-536.97821	511.88894	1046.72276	-463.59521	678.35378	849.55914	-408.41229	699.89510	724.10555	-445.35532	622.90766	612.68781	-373.62431	634.42349	531.07629	-374.50986	547.89794	500.75099	-453.33500	494.24171	883.30962	-713.75059	529.33367	766.40604	-730.18079	447.53268	638.36656	-682.31499	435.92821	531.64294	-682.93994	507.61402	520.26802	-583.54665	631.99050	400.32736	-429.57495	636.23714	343.85630	-356.36861	609.03572	223.41134	-408.98474	591.06123	132.78442	-333.27169	566.38030	124.50704	-416.29775	493.97202	394.41927	-658.16199	421.16370	299.59612	-689.50839	467.89801	207.43611	-640.47185	461.35872	121.89263	-606.41969	391.40892	125.81898	-654.75748	513.57150	100.98117	-330.11224	688.34177	74.79797	-459.90072	716.62192	62.46952	-366.19804	362.04294	98.05116	-586.70990	543.37182	80.11397	-707.45935	470.26112	60.68951	-764.43634	441.98161	1470.56338	-678.44208	633.75307	1469.13644	-357.04713	640.01698	1456.22252	-551.27658	513.69198	1530.93316	-504.04127	520.71171	1444.16937	-684.18089	408.53399	1441.88973	-619.86898	684.55575	1445.73970	-407.29166	579.86882	1435.31342	-346.39418	685.01236	1374.21696	-290.81908	733.04877	1323.08062	-303.48947	688.22914	1277.94459	-222.53626	771.05918	1237.10458	-198.43208	720.16543	1174.04917	-236.66117	395.78818	1401.13135	-725.75175	369.61038	1312.50309	-710.92679	381.85841	1320.97128	-787.87995	355.43624	1233.97501	-857.42660	378.31307	1166.15541	-806.03359	837.24193	1243.91972	-248.20003	941.16767	1210.63323	-377.36724	968.66482	1183.33813	-323.49589	413.21647	1250.69938	-893.23112	584.98097	1229.78056	-943.24718	554.03301	1206.34998	-992.83783	629.68374	953.49254	-482.70117	538.82113	976.81220	-635.74362	
209	1.74167	569.25548	1026.60456	-696.52281	698.60785	1025.12894	-482.39414	465.96686	1046.65176	-536.97183	511.97297	1046.76955	-463.58344	678.42584	849.58421	-408.32588	699.88569	724.10238	-445.36296	622.95607	612.69905	-373.58260	634.50516	531.12909	-374.38033	547.80751	500.75850	-453.30292	494.19546	883.31916	-713.72124	529.26388	766.40887	-730.15593	447.50426	638.39685	-682.33133	435.85158	531.65409	-682.90939	507.55025	520.21483	-583.42622	631.92763	400.34414	-429.60878	636.31138	343.91713	-356.24861	608.96754	223.41069	-408.98584	591.09789	132.79060	-333.26149	566.30259	124.52581	-416.28247	493.90293	394.40294	-658.11752	421.07381	299.59909	-689.49329	467.85584	207.42568	-640.46479	461.22738	121.91777	-606.10745	391.33632	125.82776	-654.73378	513.58101	100.97238	-330.11442	688.32862	74.77065	-459.91046	716.61766	62.45218	-366.22059	362.08163	98.02219	-586.72472	543.32777	80.11725	-707.44058	470.15187	60.71072	-764.38825	442.02619	1470.55906	-678.48308	633.85917	1469.13608	-357.09241	640.09114	1456.21056	-551.36420	513.77273	1530.93777	-504.09795	520.68437	1444.17670	-684.18033	408.58772	1441.89329	-619.91939	684.61253	1445.73989	-407.39918	579.97627	1435.31814	-346.44070	685.11793	1374.22560	-290.88180	733.11770	1323.07387	-303.58484	688.32500	1277.96426	-222.56517	771.15442	1237.11773	-198.46381	720.16698	1174.07338	-236.70142	395.79370	1401.14669	-725.78873	369.47669	1312.58169	-710.94605	381.82333	1320.98739	-787.88490	355.43326	1233.97541	-857.44508	378.32599	1166.17170	-806.01317	837.26824	1243.79253	-248.27405	941.22521	1210.60071	-377.42746	968.75020	1183.33113	-323.50475	413.19638	1250.68931	-893.23906	584.97091	1229.73782	-943.29312	553.97936	1206.30085	-992.80579	629.71478	953.48046	-482.73187	538.78257	976.80889	-635.73119	
210	1.75000	569.27216	1026.58325	-696.54716	698.62464	1025.09941	-482.46206	466.03846	1046.68074	-536.98486	512.03181	1046.81827	-463.61136	678.43717	849.59084	-408.38565	699.88743	724.10339	-445.41534	622.99030	612.73262	-373.57690	634.53262	531.14302	-374.39614	547.77127	500.74810	-453.30079	494.19662	883.31957	-713.71921	529.24850	766.41004	-730.15631	447.49639	638.39939	-682.34300	435.82759	531.65781	-682.90663	507.51103	520.18400	-583.34558	631.90593	400.34836	-429.63751	636.32591	343.92794	-356.28326	608.94841	223.42402	-409.02824	591.13447	132.80329	-333.27689	566.28658	124.53689	-416.28905	493.89181	394.40736	-658.14840	421.05241	299.59862	-689.48798	467.86050	207.44970	-640.54056	461.20581	121.90047	-605.98922	391.31026	125.82967	-654.72486	513.59991	100.97733	-330.13559	688.36124	74.78167	-459.94366	716.62007	62.45333	-366.26145	362.11589	98.01907	-586.74695	543.30453	80.12094	-707.41422	470.09630	60.72623	-764.36132	442.08547	1470.55944	-678.54637	633.94867	1469.15674	-357.16213	640.17588	1456.20926	-551.49789	513.84817	1530.97568	-504.19265	520.71050	1444.16529	-684.25211	408.65422	1441.90831	-619.99527	684.67044	1445.74783	-407.54887	580.07250	1435.34684	-346.50486	685.21325	1374.25740	-290.96203	733.18449	1323.07806	-303.73241	688.40857	1277.99831	-222.61446	771.22010	1237.14711	-198.52327	720.19230	1174.08215	-236.75367	395.87622	1401.15894	-725.87915	369.43362	1312.67735	-711.00859	381.83783	1320.99389	-787.92103	355.46397	1233.96995	-857.49149	378.37339	1166.17768	-806.02750	837.31907	1243.73363	-248.37789	941.28876	1210.57093	-377.52764	968.82018	1183.32913	-323.58757	413.20692	1250.67234	-893.26685	585.01705	1229.70163	-943.39125	553.99498	1206.25690	-992.85975	629.73955	953.47246	-482.76917	538.77457	976.81024	-635.74731	
